<?xml version="1.0" encoding="UTF-8" standalone="no"?>
<!-- Created with Inkscape (http://www.inkscape.org/) -->

<svg
   width="512"
   height="512"
   viewBox="0 0 512 512"
   version="1.1"
   id="svg1"
   xml:space="preserve"
   inkscape:version="1.4 (86a8ad7, 2024-10-11)"
   sodipodi:docname="dessin.svg"
   xmlns:inkscape="http://www.inkscape.org/namespaces/inkscape"
   xmlns:sodipodi="http://sodipodi.sourceforge.net/DTD/sodipodi-0.dtd"
   xmlns="http://www.w3.org/2000/svg"
   xmlns:svg="http://www.w3.org/2000/svg"><defs
   id="defs1" />
  <sodipodi:namedview
   id="namedview1"
   pagecolor="#ffffff"
   bordercolor="#000000"
   borderopacity="0.25"
   inkscape:showpageshadow="2"
   inkscape:pageopacity="0.0"
   inkscape:pagecheckerboard="0"
   inkscape:deskcolor="#d1d1d1"
   inkscape:document-units="px"
   inkscape:zoom="1.5625"
   inkscape:cx="261.76"
   inkscape:cy="359.68"
   inkscape:window-width="1920"
   inkscape:window-height="1009"
   inkscape:window-x="-8"
   inkscape:window-y="-8"
   inkscape:window-maximized="1"
   inkscape:current-layer="layer1" />

  <g
   inkscape:label="Calque 1"
   inkscape:groupmode="layer"
   id="layer1"
   style="display:inline"
   transform="translate(3.2,2.1332277)">
    <g
   data-paper-data="{&quot;isGlobalGroup&quot;:true,&quot;bounds&quot;:{&quot;x&quot;:100.17579181885749,&quot;y&quot;:115,&quot;width&quot;:349.648416362285,&quot;height&quot;:240}}"
   id="g23"
   style="font-family:none;mix-blend-mode:normal;fill:#3c9e5f;fill-opacity:1;stroke:none;stroke-width:1;stroke-linecap:butt;stroke-linejoin:miter;stroke-miterlimit:10;stroke-dasharray:none;stroke-dashoffset:0"
   transform="translate(-22.2,21)">
      <g
   data-paper-data="{&quot;isSecondaryText&quot;:true}"
   fill-rule="nonzero"
   id="g8"
   style="fill:#3c9e5f;fill-opacity:1">
        <path
   d="m 195.63001,343.83255 h -2.49261 l -3.47839,7.02718 -3.71779,-7.02718 h -2.37995 l -0.0422,10.89988 h 2.52077 l -0.0282,-5.53444 3.09816,5.53444 h 0.97169 l 3.04183,-5.53444 0.0141,5.53444 h 2.46444 z"
   data-paper-data="{&quot;glyphName&quot;:&quot;M&quot;,&quot;glyphIndex&quot;:0,&quot;firstGlyphOfWord&quot;:true,&quot;word&quot;:1}"
   id="path2"
   style="fill:#3c9e5f;fill-opacity:1" />
        <path
   d="m 223.01949,350.53584 h -1.95747 l 0.97169,-2.88692 z m 4.26701,4.19659 -4.25293,-10.75906 h -1.91522 l -4.3515,10.75906 h 2.50669 l 1.02802,-2.15463 h 3.4643 l 0.97169,2.15463 z"
   data-paper-data="{&quot;glyphName&quot;:&quot;A&quot;,&quot;glyphIndex&quot;:1,&quot;word&quot;:1}"
   id="path3"
   style="fill:#3c9e5f;fill-opacity:1" />
        <path
   d="M 256.85925,354.92959 V 344.1142 h -2.52077 v 6.36531 l -5.40769,-6.4498 h -1.81665 v 10.70273 h 2.52077 v -6.23856 l 5.39361,6.43572 z"
   data-paper-data="{&quot;glyphName&quot;:&quot;N&quot;,&quot;glyphIndex&quot;:2,&quot;word&quot;:1}"
   id="path4"
   style="fill:#3c9e5f;fill-opacity:1" />
        <path
   d="m 282.55384,350.53584 h -1.95747 l 0.97169,-2.88692 z m 4.26701,4.19659 -4.25293,-10.75906 h -1.91522 l -4.3515,10.75906 h 2.50669 l 1.02802,-2.15463 h 3.4643 l 0.97169,2.15463 z"
   data-paper-data="{&quot;glyphName&quot;:&quot;A&quot;,&quot;glyphIndex&quot;:3,&quot;word&quot;:1}"
   id="path5"
   style="fill:#3c9e5f;fill-opacity:1" />
        <path
   d="m 315.9278,348.88818 h -5.15421 v 2.04197 h 2.50669 c -0.21124,1.05619 -1.36601,1.91522 -2.54894,1.91522 -1.97155,0 -3.05591,-1.74623 -3.05591,-3.37981 0,-1.63357 1.14069,-3.4643 3.11224,-3.4643 1.04211,0 1.92931,0.61963 2.47853,1.70399 l 2.3377,-1.14069 c -1.05619,-1.84481 -2.80242,-2.73201 -4.7599,-2.73201 -3.50655,0 -5.71751,2.61935 -5.71751,5.63301 0,2.91508 2.30954,5.53444 5.57668,5.53444 1.57724,0 2.78834,-0.66188 3.64738,-1.60541 v 1.33784 h 1.57724 v -5.83017 0 z"
   data-paper-data="{&quot;glyphName&quot;:&quot;G&quot;,&quot;glyphIndex&quot;:4,&quot;word&quot;:1}"
   id="path6"
   style="fill:#3c9e5f;fill-opacity:1" />
        <path
   d="m 341.58074,354.73243 v -2.14055 h -4.01352 v -2.28137 h 3.95719 v -2.14055 h -3.95719 v -1.91522 h 4.01352 v -2.14055 h -6.54838 v 10.61823 z"
   data-paper-data="{&quot;glyphName&quot;:&quot;E&quot;,&quot;glyphIndex&quot;:5,&quot;word&quot;:1}"
   id="path7"
   style="fill:#3c9e5f;fill-opacity:1" />
        <path
   d="m 361.18594,346.15617 c 1.08436,0 1.74623,0.22532 1.74623,1.30968 0,1.07027 -0.66188,1.40825 -1.76032,1.42234 h -0.42248 v -2.73201 z m 5.29503,8.57626 -2.70385,-4.28109 c 1.30968,-0.57738 1.6899,-1.80256 1.6899,-3.04183 0,-2.3377 -1.61949,-3.28123 -3.83045,-3.28123 h -3.42206 v 10.60415 h 2.53486 v -3.98536 h 0.59147 l 2.08422,3.98536 z"
   data-paper-data="{&quot;glyphName&quot;:&quot;R&quot;,&quot;glyphIndex&quot;:6,&quot;lastGlyphOfWord&quot;:true,&quot;word&quot;:1}"
   id="path8"
   style="fill:#3c9e5f;fill-opacity:1" />
      </g>
      <g
   data-paper-data="{&quot;isPrimaryText&quot;:true}"
   fill-rule="nonzero"
   id="g18"
   style="fill:#3c9e5f;fill-opacity:1">
        <path
   d="m 124.27318,303.46078 c -0.2625,0.42 -0.53812,0.735 -0.82687,0.945 -0.28875,0.21 -0.66062,0.315 -1.11562,0.315 -0.4025,0 -0.83562,-0.12687 -1.29937,-0.38062 -0.46375,-0.25375 -0.98875,-0.53812 -1.57499,-0.85312 -0.58625,-0.315 -1.25562,-0.59937 -2.00812,-0.85312 -0.7525,-0.25375 -1.60999,-0.38062 -2.57249,-0.38062 -1.66249,0 -2.90061,0.35437 -3.71436,1.06312 -0.81375,0.70875 -1.22062,1.66687 -1.22062,2.87436 0,0.77 0.245,1.40874 0.735,1.91624 0.49,0.5075 1.13312,0.945 1.92937,1.31249 0.79625,0.3675 1.70624,0.70437 2.72999,1.01062 1.02375,0.30625 2.06937,0.6475 3.13686,1.02375 1.0675,0.37625 2.11312,0.81812 3.13686,1.32562 1.02375,0.5075 1.93374,1.15499 2.72999,1.94249 0.79625,0.7875 1.43937,1.74562 1.92937,2.87436 0.49,1.12874 0.735,2.48936 0.735,4.08186 0,1.76749 -0.30625,3.42123 -0.91875,4.96123 -0.6125,1.53999 -1.50062,2.88311 -2.66436,4.02936 -1.16374,1.14624 -2.59874,2.04749 -4.30498,2.70374 -1.70624,0.65625 -3.64436,0.98437 -5.81435,0.98437 -1.18999,0 -2.40186,-0.1225 -3.63561,-0.3675 -1.23374,-0.245 -2.42811,-0.59062 -3.58311,-1.03687 -1.15499,-0.44625 -2.23999,-0.97562 -3.25499,-1.58812 -1.015,-0.6125 -1.89874,-1.29499 -2.65124,-2.04749 l 2.62499,-4.14748 c 0.1925,-0.315 0.46375,-0.56875 0.81375,-0.76125 0.35,-0.1925 0.72625,-0.28875 1.12874,-0.28875 0.525,0 1.05437,0.16625 1.58812,0.49875 0.53375,0.3325 1.13749,0.7 1.81124,1.1025 0.67375,0.4025 1.44812,0.77 2.32311,1.1025 0.875,0.3325 1.90749,0.49875 3.09749,0.49875 1.60999,0 2.86124,-0.35437 3.75373,-1.06312 0.8925,-0.70875 1.33874,-1.83312 1.33874,-3.37311 0,-0.8925 -0.245,-1.61874 -0.735,-2.17874 -0.49,-0.56 -1.13312,-1.02375 -1.92937,-1.39124 -0.79625,-0.3675 -1.70187,-0.69125 -2.71686,-0.97125 -1.015,-0.28 -2.05624,-0.59062 -3.12374,-0.93187 -1.0675,-0.34125 -2.10874,-0.76125 -3.12374,-1.25999 -1.015,-0.49875 -1.92062,-1.15499 -2.71686,-1.96874 -0.79625,-0.81375 -1.43937,-1.82874 -1.92937,-3.04499 -0.49,-1.21624 -0.735,-2.71686 -0.735,-4.50185 0,-1.43499 0.28875,-2.83499 0.86625,-4.19998 0.5775,-1.36499 1.42624,-2.58124 2.54624,-3.64873 1.11999,-1.0675 2.49374,-1.92062 4.12123,-2.55936 1.62749,-0.63875 3.49123,-0.95812 5.59122,-0.95812 1.17249,0 2.31436,0.0919 3.42561,0.27562 1.11124,0.18375 2.16562,0.455 3.16311,0.81375 0.9975,0.35875 1.92937,0.7875 2.79561,1.28624 0.86625,0.49875 1.64062,1.06312 2.32311,1.69312 z"
   data-paper-data="{&quot;glyphName&quot;:&quot;S&quot;,&quot;glyphIndex&quot;:0,&quot;firstGlyphOfWord&quot;:true,&quot;word&quot;:1}"
   fill="#ffffff"
   id="path9"
   style="fill:#3c9e5f;fill-opacity:1" />
        <path
   d="m 169.16048,314.80073 c 0,2.76499 -0.47687,5.33748 -1.43062,7.71747 -0.95375,2.37999 -2.29686,4.44935 -4.02936,6.2081 -1.73249,1.75874 -3.81936,3.13686 -6.2606,4.13436 -2.44124,0.9975 -5.14935,1.49624 -8.12434,1.49624 -2.97499,0 -5.68747,-0.49875 -8.13746,-1.49624 -2.44999,-0.9975 -4.5456,-2.37561 -6.28685,-4.13436 -1.74124,-1.75874 -3.08874,-3.82811 -4.04248,-6.2081 -0.95375,-2.37999 -1.43062,-4.95248 -1.43062,-7.71747 0,-2.76499 0.47687,-5.33748 1.43062,-7.71747 0.95375,-2.37999 2.30124,-4.44498 4.04248,-6.19497 1.74124,-1.74999 3.83686,-3.12374 6.28685,-4.12123 2.44999,-0.9975 5.16248,-1.49624 8.13746,-1.49624 2.97499,0 5.6831,0.50312 8.12434,1.50937 2.44124,1.00625 4.5281,2.38436 6.2606,4.13436 1.73249,1.74999 3.07561,3.81498 4.02936,6.19497 0.95375,2.37999 1.43062,4.94373 1.43062,7.69122 z m -9.08246,0 c 0,-1.88999 -0.245,-3.59186 -0.735,-5.1056 -0.49,-1.51374 -1.19437,-2.79561 -2.11312,-3.84561 -0.91875,-1.05 -2.04312,-1.85499 -3.37311,-2.41499 -1.32999,-0.56 -2.84374,-0.84 -4.54123,-0.84 -1.71499,0 -3.24186,0.28 -4.5806,0.84 -1.33874,0.56 -2.46749,1.36499 -3.38623,2.41499 -0.91875,1.05 -1.62312,2.33186 -2.11312,3.84561 -0.49,1.51374 -0.735,3.21561 -0.735,5.1056 0,1.90749 0.245,3.61811 0.735,5.13185 0.49,1.51374 1.19437,2.79561 2.11312,3.84561 0.91875,1.05 2.04749,1.85062 3.38623,2.40186 1.33874,0.55125 2.86561,0.82687 4.5806,0.82687 1.69749,0 3.21124,-0.27562 4.54123,-0.82687 1.32999,-0.55125 2.45436,-1.35187 3.37311,-2.40186 0.91875,-1.05 1.62312,-2.33186 2.11312,-3.84561 0.49,-1.51374 0.735,-3.22436 0.735,-5.13185 z"
   data-paper-data="{&quot;glyphName&quot;:&quot;O&quot;,&quot;glyphIndex&quot;:1,&quot;word&quot;:1}"
   fill="#ffffff"
   id="path10"
   style="fill:#3c9e5f;fill-opacity:1" />
        <path
   d="m 189.32039,326.92818 c 1.18999,0 2.25311,-0.19687 3.18936,-0.59062 0.93625,-0.39375 1.72812,-0.95812 2.37561,-1.69312 0.6475,-0.735 1.14187,-1.63187 1.48312,-2.69061 0.34125,-1.05875 0.51187,-2.26186 0.51187,-3.60936 v -22.65365 h 8.87246 v 22.65365 c 0,2.34499 -0.38062,4.49748 -1.14187,6.45747 -0.76125,1.95999 -1.85062,3.64873 -3.26811,5.06623 -1.41749,1.41749 -3.14124,2.51999 -5.17123,3.30749 -2.02999,0.7875 -4.31373,1.18124 -6.85122,1.18124 -2.55499,0 -4.84748,-0.39375 -6.87747,-1.18124 -2.02999,-0.7875 -3.75373,-1.88999 -5.17123,-3.30749 -1.41749,-1.41749 -2.50249,-3.10624 -3.25499,-5.06623 -0.7525,-1.95999 -1.12874,-4.11248 -1.12874,-6.45747 v -22.65365 h 8.87246 v 22.6274 c 0,1.34749 0.17062,2.55061 0.51187,3.60936 0.34125,1.05875 0.83562,1.95999 1.48312,2.70374 0.6475,0.74375 1.43937,1.31249 2.37561,1.70624 0.93625,0.39375 1.99937,0.59062 3.18936,0.59062 z"
   data-paper-data="{&quot;glyphName&quot;:&quot;U&quot;,&quot;glyphIndex&quot;:2,&quot;word&quot;:1}"
   fill="#ffffff"
   id="path11"
   style="fill:#3c9e5f;fill-opacity:1" />
        <path
   d="m 239.30016,295.69082 v 7.03497 h -10.76245 v 31.21111 h -8.87246 V 302.72579 H 208.9028 v -7.03497 z"
   data-paper-data="{&quot;glyphName&quot;:&quot;T&quot;,&quot;glyphIndex&quot;:3,&quot;word&quot;:1}"
   fill="#ffffff"
   id="path12"
   style="fill:#3c9e5f;fill-opacity:1" />
        <path
   d="m 267.59753,295.69082 v 6.82497 H 251.9001 v 8.92496 h 12.02245 v 6.56247 H 251.9001 v 9.10871 h 15.69743 v 6.82497 h -24.62239 v -38.24608 z"
   data-paper-data="{&quot;glyphName&quot;:&quot;E&quot;,&quot;glyphIndex&quot;:4,&quot;word&quot;:1}"
   fill="#ffffff"
   id="path13"
   style="fill:#3c9e5f;fill-opacity:1" />
        <path
   d="m 277.30999,295.69082 c 0.385,0 0.70875,0.0175 0.97125,0.0525 0.2625,0.035 0.49875,0.10062 0.70875,0.19687 0.21,0.0963 0.41125,0.23187 0.60375,0.40687 0.1925,0.175 0.41125,0.41125 0.65625,0.70875 l 18.16492,22.96865 c -0.07,-0.735 -0.1225,-1.44812 -0.1575,-2.13937 -0.035,-0.69125 -0.0525,-1.34312 -0.0525,-1.95562 v -20.23866 h 7.82246 v 38.24608 h -4.61998 c -0.6825,0 -1.25999,-0.105 -1.73249,-0.315 -0.4725,-0.21 -0.9275,-0.595 -1.36499,-1.15499 L 280.27624,309.682 c 0.0525,0.665 0.0963,1.31687 0.13125,1.95562 0.035,0.63875 0.0525,1.23812 0.0525,1.79812 v 20.50116 h -7.82246 v -38.24608 z"
   data-paper-data="{&quot;glyphName&quot;:&quot;N&quot;,&quot;glyphIndex&quot;:5,&quot;word&quot;:1}"
   fill="#ffffff"
   id="path14"
   style="fill:#3c9e5f;fill-opacity:1" />
        <path
   d="m 347.92217,333.9369 h -6.87747 c -0.77,0 -1.40437,-0.17937 -1.90312,-0.53812 -0.49875,-0.35875 -0.84437,-0.81812 -1.03687,-1.37812 l -2.25749,-6.66747 h -14.54243 l -2.25749,6.66747 c -0.175,0.49 -0.51625,0.93187 -1.02375,1.32562 -0.5075,0.39375 -1.12874,0.59062 -1.86374,0.59062 h -6.92997 l 14.80493,-38.24608 h 9.08246 z m -24.56989,-14.62119 h 10.44745 l -3.51748,-10.4737 c -0.2275,-0.665 -0.49437,-1.44812 -0.80062,-2.34936 -0.30625,-0.90125 -0.60812,-1.87687 -0.90562,-2.92686 -0.28,1.0675 -0.56875,2.05624 -0.86625,2.96624 -0.2975,0.91 -0.5775,1.69749 -0.84,2.36249 z"
   data-paper-data="{&quot;glyphName&quot;:&quot;A&quot;,&quot;glyphIndex&quot;:6,&quot;word&quot;:1}"
   fill="#ffffff"
   id="path15"
   style="fill:#3c9e5f;fill-opacity:1" />
        <path
   d="m 355.69213,295.69082 c 0.385,0 0.70875,0.0175 0.97125,0.0525 0.2625,0.035 0.49875,0.10062 0.70875,0.19687 0.21,0.0963 0.41125,0.23187 0.60375,0.40687 0.1925,0.175 0.41125,0.41125 0.65625,0.70875 l 18.16492,22.96865 c -0.07,-0.735 -0.1225,-1.44812 -0.1575,-2.13937 -0.035,-0.69125 -0.0525,-1.34312 -0.0525,-1.95562 v -20.23866 h 7.82246 v 38.24608 h -4.61998 c -0.6825,0 -1.25999,-0.105 -1.73249,-0.315 -0.4725,-0.21 -0.9275,-0.595 -1.36499,-1.15499 L 358.65838,309.682 c 0.0525,0.665 0.0962,1.31687 0.13125,1.95562 0.035,0.63875 0.0525,1.23812 0.0525,1.79812 v 20.50116 h -7.82246 v -38.24608 z"
   data-paper-data="{&quot;glyphName&quot;:&quot;N&quot;,&quot;glyphIndex&quot;:7,&quot;word&quot;:1}"
   fill="#ffffff"
   id="path16"
   style="fill:#3c9e5f;fill-opacity:1" />
        <path
   d="m 416.40811,324.04069 c 0.21,0 0.42,0.0394 0.63,0.11812 0.21,0.0787 0.41125,0.21437 0.60375,0.40687 l 3.51748,3.70123 c -1.53999,2.01249 -3.46936,3.53061 -5.7881,4.55435 -2.31874,1.02375 -5.06185,1.53562 -8.22934,1.53562 -2.90499,0 -5.5081,-0.49437 -7.80934,-1.48312 -2.30124,-0.98875 -4.25248,-2.35374 -5.85372,-4.09498 -1.60124,-1.74124 -2.83061,-3.80623 -3.68811,-6.19497 -0.8575,-2.38874 -1.28624,-4.9831 -1.28624,-7.78309 0,-2.85249 0.49,-5.4731 1.46999,-7.86184 0.98,-2.38874 2.34936,-4.44935 4.10811,-6.18185 1.75874,-1.73249 3.86311,-3.07999 6.3131,-4.04248 2.44999,-0.9625 5.15373,-1.44374 8.11121,-1.44374 1.43499,0 2.78686,0.12687 4.05561,0.38062 1.26874,0.25375 2.45436,0.60375 3.55686,1.05 1.1025,0.44625 2.11749,0.98 3.04499,1.60124 0.9275,0.62125 1.74999,1.30812 2.46749,2.06062 l -2.99249,4.01623 c -0.1925,0.245 -0.42,0.46812 -0.6825,0.66937 -0.2625,0.20125 -0.63,0.30187 -1.1025,0.30187 -0.315,0 -0.6125,-0.07 -0.8925,-0.21 -0.28,-0.14 -0.5775,-0.31062 -0.8925,-0.51187 -0.315,-0.20125 -0.66062,-0.42 -1.03687,-0.65625 -0.37625,-0.23625 -0.8225,-0.455 -1.33874,-0.65625 -0.51625,-0.20125 -1.11999,-0.37187 -1.81124,-0.51187 -0.69125,-0.14 -1.50062,-0.21 -2.42811,-0.21 -1.60999,0 -3.07999,0.28437 -4.40998,0.85312 -1.32999,0.56875 -2.47186,1.38249 -3.42561,2.44124 -0.95375,1.05875 -1.69749,2.34061 -2.23124,3.84561 -0.53375,1.50499 -0.80062,3.19374 -0.80062,5.06623 0,1.95999 0.26687,3.70123 0.80062,5.22373 0.53375,1.52249 1.25999,2.80436 2.17874,3.84561 0.91875,1.04125 1.99062,1.83312 3.21561,2.37561 1.22499,0.5425 2.53749,0.81375 3.93748,0.81375 0.805,0 1.53999,-0.0394 2.20499,-0.11812 0.665,-0.0788 1.28187,-0.21437 1.85062,-0.40687 0.56875,-0.1925 1.11124,-0.44187 1.62749,-0.74812 0.51625,-0.30625 1.03687,-0.68687 1.56187,-1.14187 0.21,-0.175 0.4375,-0.31937 0.6825,-0.43312 0.245,-0.11375 0.49875,-0.17062 0.76125,-0.17062 z"
   data-paper-data="{&quot;glyphName&quot;:&quot;C&quot;,&quot;glyphIndex&quot;:8,&quot;word&quot;:1}"
   fill="#ffffff"
   id="path17"
   style="fill:#3c9e5f;fill-opacity:1" />
        <path
   d="m 449.82421,295.69082 v 6.82497 h -15.69743 v 8.92496 h 12.02245 v 6.56247 h -12.02245 v 9.10871 h 15.69743 v 6.82497 h -24.62239 v -38.24608 z"
   data-paper-data="{&quot;glyphName&quot;:&quot;E&quot;,&quot;glyphIndex&quot;:9,&quot;lastGlyphOfWord&quot;:true,&quot;word&quot;:1}"
   fill="#ffffff"
   id="path18"
   style="fill:#3c9e5f;fill-opacity:1" />
      </g>
      
    <g
   data-paper-data="{&quot;isPathIcon&quot;:true}"
   id="g13"
   style="display:inline;mix-blend-mode:normal;fill:#3c9e5f;fill-opacity:1;fill-rule:evenodd"
   transform="matrix(1.0468004,0,0,1.0468004,113.82961,-65.130587)"><path
     d="m 153.44483,168.00159 c -37.00193,0 -66.99797,29.99594 -66.99797,66.99787 0,37.00193 29.99604,66.99787 66.99797,66.99787 15.60497,0 29.96294,-5.33399 41.35092,-14.27897 -8.67198,4.82799 -18.65996,7.57999 -29.29094,7.57999 -33.30193,0 -60.29888,-26.99695 -60.29888,-60.29888 0,-33.30193 26.99695,-60.29888 60.29888,-60.29888 10.63098,0 20.61896,2.75199 29.29094,7.57999 -11.38798,-8.94498 -25.74595,-14.27897 -41.35092,-14.27897 z"
     fill="#ff671f"
     id="path10-8"
     style="fill:#3c9e5f;fill-opacity:1" /><path
     d="m 167.99681,288.59835 c 29.60194,0 53.59889,-23.99695 53.59889,-53.59889 0,-29.60194 -23.99695,-53.59889 -53.59889,-53.59889 -12.48398,0 -23.96995,4.26799 -33.08094,11.42398 6.93799,-3.86299 14.92897,-6.06399 23.43295,-6.06399 26.64195,0 48.23891,21.59696 48.23891,48.23891 0,26.64195 -21.59696,48.23891 -48.23891,48.23891 -8.50398,0 -16.49497,-2.201 -23.43295,-6.06399 9.11098,7.15599 20.59696,11.42398 33.08094,11.42398 z"
     fill="#ff671f"
     id="path11-2"
     style="fill:#3c9e5f;fill-opacity:1" /><path
     d="m 159.30538,222.41982 c 0,-0.57186 0.24139,-0.95353 0.72413,-1.14508 h 21.20305 v -19.07346 h -26.50512 c -4.44391,0 -8.23161,1.86021 -11.36481,5.57858 -3.13146,3.72045 -4.69805,8.21804 -4.69805,13.49488 0,7.37682 3.26549,13.22619 9.7982,17.5481 l 6.26466,4.1979 c 0.16136,0.31693 0.24195,0.63454 0.24195,0.95285 0,0.57186 -0.24137,0.95354 -0.72411,1.14508 h -26.82541 v 19.07347 h 32.12746 c 4.44392,0 8.23162,-1.86023 11.36482,-5.57859 3.13147,-3.72045 4.69805,-8.21804 4.69805,-13.49488 0,-7.37682 -3.2655,-13.22618 -9.79821,-17.54809 l -6.26466,-4.19791 c -0.16136,-0.31692 -0.24195,-0.63455 -0.24195,-0.95285 z"
     fill="#ff671f"
     id="path13-4"
     style="fill:#3c9e5f;fill-opacity:1;stroke-width:1.89679" /></g></g>
  </g>
</svg>
